<svg width="40" height="34" viewBox="0 0 40 34" fill="none" xmlns="http://www.w3.org/2000/svg">
<path d="M24.8826 5.31746C25.2988 7.08184 26.8832 8.39621 28.7751 8.39621C30.9838 8.39621 32.7744 6.60559 32.7744 4.39684C32.7744 2.18809 30.9838 0.397461 28.7751 0.397461C26.8438 0.397461 25.2332 1.76621 24.8582 3.58684C21.6238 3.93371 19.0982 6.67684 19.0982 10.0012C19.0982 10.0087 19.0982 10.0143 19.0982 10.0218C15.5807 10.17 12.3688 11.1712 9.81882 12.7518C8.87194 12.0187 7.68319 11.5818 6.39319 11.5818C3.29757 11.5818 0.788818 14.0906 0.788818 17.1862C0.788818 19.4325 2.10882 21.3675 4.01569 22.2618C4.20132 28.7681 11.2907 34.0012 20.0113 34.0012C28.7319 34.0012 35.8307 28.7625 36.0069 22.2506C37.8988 21.3506 39.2076 19.4212 39.2076 17.1881C39.2076 14.0925 36.6988 11.5837 33.6032 11.5837C32.3188 11.5837 31.1357 12.0168 30.1907 12.7443C27.6182 11.1525 24.3707 10.1512 20.8176 10.0181C20.8176 10.0125 20.8176 10.0087 20.8176 10.0031C20.8176 7.62184 22.5876 5.64559 24.8826 5.32121V5.31746ZM9.59382 20.7431C9.68757 18.7106 11.0376 17.1506 12.6069 17.1506C14.1763 17.1506 15.3763 18.7987 15.2826 20.8312C15.1888 22.8637 14.0169 23.6025 12.4457 23.6025C10.8744 23.6025 9.50007 22.7756 9.59382 20.7431ZM27.4176 17.1506C28.9888 17.1506 30.3388 18.7106 30.4307 20.7431C30.5244 22.7756 29.1482 23.6025 27.5788 23.6025C26.0094 23.6025 24.8357 22.8656 24.7419 20.8312C24.6482 18.7987 25.8463 17.1506 27.4176 17.1506ZM25.5501 25.4456C25.8444 25.4756 26.0319 25.7812 25.9176 26.055C24.9519 28.3631 22.6719 29.985 20.0113 29.985C17.3507 29.985 15.0726 28.3631 14.1051 26.055C13.9907 25.7812 14.1782 25.4756 14.4726 25.4456C16.1976 25.2712 18.0632 25.1756 20.0113 25.1756C21.9594 25.1756 23.8232 25.2712 25.5501 25.4456Z" fill="white"/>
</svg>
